<svg xmlns="http://www.w3.org/2000/svg" viewBox="0 0 22 22"><defs><style>.cls-1{fill:#fff;}.cls-2{fill:#bd9d00;}.cls-3{fill:#ffda00;}.cls-4{fill:#dbb700;}</style></defs><g id="profile"><path class="cls-1" d="M7.76,15.38a2,2,0,0,1-.2-.55,4,4,0,0,1-.1-1.42,3.12,3.12,0,0,1,.69-1.71,2.91,2.91,0,0,1,1.25-.84,4.33,4.33,0,0,1,1.24-.22,4.2,4.2,0,0,0-.59,1,1.45,1.45,0,0,0-.07.88.79.79,0,0,0,.44.44l.29.1.15,0s.12,0,.08-.09Z"/><ellipse class="cls-2" cx="11" cy="11.52" rx="8" ry="7.48"/><ellipse class="cls-3" cx="11" cy="10.48" rx="8" ry="7.48"/><path class="cls-4" d="M14.24,11.91A3.92,3.92,0,0,1,10.6,14.2,3.22,3.22,0,0,1,7.39,11c0-2.66,2.38-3.33,3.64-3.46S13,6.81,13,5.8A5.93,5.93,0,0,1,14.24,11.91Z"/><path class="cls-2" d="M8,11.5C8,8.84,10.43,8.17,11.68,8a2,2,0,0,0,2-1.43A7.41,7.41,0,0,0,13,5.8c0,1-.85,1.6-2,1.72S7.39,8.32,7.39,11A3.23,3.23,0,0,0,9,13.75,3.19,3.19,0,0,1,8,11.5Z"/></g></svg>