<svg xmlns="http://www.w3.org/2000/svg" xmlns:xlink="http://www.w3.org/1999/xlink" viewBox="0 0 22 22"><defs><style>.cls-1{fill:none;}.cls-2{fill:#60a088;}.cls-3{clip-path:url(#clip-path);}</style><clipPath id="clip-path"><rect class="cls-1" x="4.5" y="2.77" width="6.5" height="16.47"/></clipPath></defs><g id="profile"><path class="cls-2" d="M11,4.61A6.93,6.93,0,0,1,15.74,11,6.93,6.93,0,0,1,11,17.39,6.93,6.93,0,0,1,6.26,11,6.93,6.93,0,0,1,11,4.61m0-1.84A8.67,8.67,0,0,0,4.5,11,8.67,8.67,0,0,0,11,19.23,8.67,8.67,0,0,0,17.5,11,8.67,8.67,0,0,0,11,2.77Z"/><g class="cls-3"><ellipse class="cls-2" cx="11" cy="11" rx="6.5" ry="8.23"/></g></g></svg>